# xmcd
#
# Track frame offsets:
#	150
#	13288
#	31475
#	45687
#	57952
#	69136
#	81666
#	96401
#	110863
#	121866
#	132628
#	145240
#	157235
#	169521
#	181113
#	196541
#	212881
#	225589
#	235371
#	247452
#
# Disc length: 3501 seconds
#
# Revision: 1
# Processed by: cddbd v1.5.2PL0 Copyright (c) Steve Scherf et al.
# Submitted via: audiograbber 1.83.01
#
DISCID=2b0dab14
DTITLE=Johnny Cash - One Piece At The Time v/s John R. Cash
DYEAR=2006
DGENRE=
TTITLE0=Let There Be Country
TTITLE1=One Piece At The Time
TTITLE2=In A Young Girl´s Mind
TTITLE3=Mountain Lady
TTITLE4=Michigan City Howdy Do
TTITLE5=Sold Out Of Flagpoles
TTITLE6=Commited To Parkview
TTITLE7=Daughter Of A Railroad Man
TTITLE8=Love Has Lost Again
TTITLE9=Go On Blues
TTITLE10=My Old Kentucky Home (Turpentine And Dandelion Wine)
TTITLE11=Hard Times Comin´
TTITLE12=The Lady Came From Baltimore
TTITLE13=Lonesome To The Bone
TTITLE14=The Night They Drove Old Dixie Down
TTITLE15=Clean Your Own Tables
TTITLE16=Jesus Was Our Savior (Cotton Was Our King)
TTITLE17=Reason To Believe
TTITLE18=Cocaine Carolina
TTITLE19=Smokey Factory Blues
EXTD=
EXTT0=
EXTT1=
EXTT2=
EXTT3=
EXTT4=
EXTT5=
EXTT6=
EXTT7=
EXTT8=
EXTT9=
EXTT10=
EXTT11=
EXTT12=
EXTT13=
EXTT14=
EXTT15=
EXTT16=
EXTT17=
EXTT18=
EXTT19=
PLAYORDER=
